<?xml version="1.0" encoding="UTF-8"?>
<svg id="_圖層_1" xmlns="http://www.w3.org/2000/svg" version="1.1" viewBox="0 0 1080 1080">
  <!-- Generator: Adobe Illustrator 30.3.0, SVG Export Plug-In . SVG Version: 2.1.3 Build 182)  -->
  <defs>
    <style>
      .st0 {
        fill: #edd4b9;
      }

      .st1 {
        fill: #334e5c;
      }

      .st2 {
        fill: #e56197;
      }

      .st3 {
        fill: #ed4082;
      }
    </style>
  </defs>
  <g>
    <path class="st3" d="M557.4,685.3c-58.1,86.5-151.2,270.1-55.7,274,42.6,1.2,111.9-39.7,150-102.6,75-123.9-5-215.5-82.3-206.4l-12,35h0Z"/>
    <path class="st1" d="M598,826.5c13-18.4,31.8-27.4,42-20.2s7.9,28-5.1,46.3c-13,18.4-31.8,27.4-42,20.2s-7.9-28,5.1-46.3Z"/>
    <path class="st1" d="M542.9,895.6c7.7-10.9,18.9-16.3,25-12s4.7,16.6-3.1,27.5-18.9,16.3-25,12-4.7-16.6,3.1-27.5Z"/>
    <path class="st1" d="M494.3,911.2c5.3-7.5,13-11.2,17.1-8.2,4.2,2.9,3.2,11.4-2.1,18.9s-13,11.2-17.2,8.2c-4.1-2.9-3.2-11.4,2.1-18.9h.1Z"/>
  </g>
  <g>
    <path class="st2" d="M982.2,449.5c-12.3-34.9-81.6-14.3-119.3,2.5-96.6,47.6-185.5,109.5-277.5,189.3l-7.1-3.7-37.1,52.3c37,68.7,167.7,108.4,248.2,29.3,17-16.8,34.7-42.2,47.6-64.9,11.6-20.8,18.9-56.2,33.4-72.1,19.6-20.9,53.4-23.1,77.1-49.8,23.5-24,42.4-59.9,34.6-82.9h0Z"/>
    <path class="st0" d="M881,480.3c13-18.4,31.8-27.4,42-20.2,10.2,7.2,7.9,28-5.1,46.3-13,18.4-31.8,27.4-42,20.2s-7.9-28,5.1-46.3Z"/>
    <path class="st0" d="M809.7,579.7c7.7-10.9,18.9-16.3,25-12s4.7,16.6-3,27.5c-7.8,10.9-18.9,16.3-25,12-6-4.3-4.7-16.6,3.1-27.5h0Z"/>
    <path class="st0" d="M744.7,658.7c15.3-21.6,37.4-32.2,49.4-23.7s9.3,32.9-6,54.4c-15.3,21.6-37.4,32.2-49.4,23.7s-9.3-32.9,6-54.5h0Z"/>
    <path class="st0" d="M677.2,707.7c7.3-10.2,17.7-15.2,23.4-11.2,5.6,4,4.4,15.5-2.9,25.7-7.2,10.2-17.7,15.2-23.3,11.2-5.7-4-4.4-15.5,2.8-25.7Z"/>
  </g>
</svg>