<?xml version="1.0" encoding="UTF-8"?>
<svg id="_圖層_1" data-name="圖層_1" xmlns="http://www.w3.org/2000/svg" version="1.1" viewBox="0 0 1080 1080">
  <!-- Generator: Adobe Illustrator 30.3.0, SVG Export Plug-In . SVG Version: 2.1.3 Build 182)  -->
  <defs>
    <style>
      .st0 {
        fill: #efca58;
      }

      .st1 {
        fill: #ddb84e;
      }

      .st2 {
        fill: #334e5c;
      }

      .st3 {
        fill: #bc9d46;
      }

      .st4 {
        fill: #d6b54e;
      }
    </style>
  </defs>
  <g>
    <g>
      <path class="st3" d="M546.3,785c82.7,75.5,278.7,188.8,348.8,39.6,30.6-66.5,19.8-167.2-43.2-215.7-124-95.3-307.4,44.9-347,163.6l41.4,12.6Z"/>
      <path class="st2" d="M773.1,697.5c-17.1-17.1-17.1-44.8,0-61.9,17.1-17.1,44.8-17.1,61.9,0,17.1,17.1,17.1,44.8,0,61.9-17.1,17.1-44.8,17.1-61.9,0Z"/>
      <path class="st2" d="M833.2,771.4c-10.2-10.2-10.2-26.6,0-36.8,10.2-10.2,26.6-10.2,36.8,0,10.2,10.2,10.2,26.6,0,36.8-10.2,10.2-26.6,10.2-36.8,0Z"/>
      <path class="st2" d="M822.3,844.4c-7-7-7-18.3,0-25.3,7-7,18.3-7,25.3,0,7,7,7,18.3,0,25.3-7,7-18.3,7-25.3,0Z"/>
    </g>
    <g>
      <path class="st1" d="M501.4,164.7c-57.5,25.2-75.5,129.4-77.3,185.2,1.8,142,28.8,269.7,79.1,399.1l-10,11.6,48.7,48.7c122-69.4,266.5-279.6,209.4-391.1-12.1-23.6-36-46.7-59.3-62.9-21.6-14.4-66.5-19.8-79.1-39.6-16.2-27,3.6-79.1-18-111.5-18-32.4-55.7-55.7-93.5-39.5Z"/>
      <path class="st2" d="M476.2,316.9c-17.1-17.1-17.1-44.8,0-61.9,17.1-17.1,44.8-17.1,61.9,0,17.1,17.1,17.1,44.8,0,61.9-17.1,17.1-44.8,17.1-61.9,0Z"/>
      <path class="st2" d="M568.3,410.7c-10.2-10.2-10.2-26.6,0-36.8,10.2-10.2,26.6-10.2,36.8,0,10.2,10.2,10.2,26.6,0,36.8-10.2,10.2-26.6,10.2-36.8,0Z"/>
      <path class="st2" d="M635.7,498.2c-20.1-20.1-20.1-52.7,0-72.8,20.1-20.1,52.7-20.1,72.8,0,20.1,20.1,20.1,52.7,0,72.8-20.1,20.1-52.7,20.1-72.7,0Z"/>
      <path class="st2" d="M659,594.8c-9.5-9.5-9.5-24.9,0-34.4,9.5-9.5,24.9-9.5,34.4,0,9.5,9.5,9.5,24.9,0,34.4-9.5,9.5-24.9,9.5-34.4,0Z"/>
    </g>
  </g>
  <g>
    <g>
      <path class="st4" d="M473.8,762.6c82.7,75.5,278.7,188.8,348.8,39.6,30.6-66.5,19.8-167.2-43.2-215.7-124-95.3-307.4,44.9-347,163.6l41.4,12.6Z"/>
      <path class="st2" d="M700.6,675.1c-17.1-17.1-17.1-44.8,0-61.9,17.1-17.1,44.8-17.1,61.9,0,17.1,17.1,17.1,44.8,0,61.9-17.1,17.1-44.8,17.1-61.9,0Z"/>
      <path class="st2" d="M760.7,749c-10.2-10.2-10.2-26.6,0-36.8,10.2-10.2,26.6-10.2,36.8,0,10.2,10.2,10.2,26.6,0,36.8-10.2,10.2-26.6,10.2-36.8,0Z"/>
      <path class="st2" d="M749.8,822c-7-7-7-18.3,0-25.3,7-7,18.3-7,25.3,0,7,7,7,18.3,0,25.3-7,7-18.3,7-25.3,0Z"/>
    </g>
    <g>
      <path class="st0" d="M428.9,142.3c-57.5,25.2-75.5,129.4-77.3,185.2,1.8,142,28.8,269.7,79.1,399.1l-10,11.6,48.7,48.7c122-69.4,266.5-279.6,209.4-391.1-12.1-23.6-36-46.7-59.3-62.9-21.6-14.4-66.5-19.8-79.1-39.6-16.2-27,3.6-79.1-18-111.5-18-32.4-55.7-55.7-93.5-39.5Z"/>
      <path class="st2" d="M403.7,294.5c-17.1-17.1-17.1-44.8,0-61.9,17.1-17.1,44.8-17.1,61.9,0,17.1,17.1,17.1,44.8,0,61.9-17.1,17.1-44.8,17.1-61.9,0Z"/>
      <path class="st2" d="M495.8,388.3c-10.2-10.2-10.2-26.6,0-36.8,10.2-10.2,26.6-10.2,36.8,0,10.2,10.2,10.2,26.6,0,36.8-10.2,10.2-26.6,10.2-36.8,0Z"/>
      <path class="st2" d="M563.2,475.8c-20.1-20.1-20.1-52.7,0-72.8,20.1-20.1,52.7-20.1,72.8,0,20.1,20.1,20.1,52.7,0,72.8-20.1,20.1-52.7,20.1-72.7,0Z"/>
      <path class="st2" d="M586.5,572.4c-9.5-9.5-9.5-24.9,0-34.4,9.5-9.5,24.9-9.5,34.4,0,9.5,9.5,9.5,24.9,0,34.4-9.5,9.5-24.9,9.5-34.4,0Z"/>
    </g>
  </g>
  <g>
    <path d="M359.9,686.3c0,12.6,13,22.9,29.1,22.9s29.1-10.3,29.1-22.9-13-22.9-29.1-22.9-29.1,10.3-29.1,22.9Z"/>
    <path d="M451.7,717.1c19.2,17.2,25,37.7,13,45.7-12,8-37.3.6-56.5-16.6-19.2-17.2-25-37.7-13-45.7,12-8,37.3-.6,56.5,16.6Z"/>
    <path d="M514.4,773.9c38.9,34.9,60.6,69.6,48.6,77.7-12,8-53.2-13.8-92.1-48.6-38.9-34.9-60.6-69.6-48.6-77.6,12-8,53.2,13.7,92.1,48.6Z"/>
    <path d="M387.9,671.6c.6,0,1.2-.1,1.7-.3,1.7-.7,2.3-2.4,1.3-3.7-1-1.3-24.5-33.1-74.7-39.4-46.5-5.9-67.3-49.8-67.5-50.3-.7-1.4-2.7-2.2-4.5-1.6-1.8.5-2.8,2.1-2.1,3.5.9,1.9,22.3,47.4,73,53.8,46.9,5.9,69.5,36.4,69.7,36.7.6.9,1.8,1.4,3.1,1.4Z"/>
    <path d="M377.9,683.2c1,0,1.9-.3,2.6-.9,1.3-1.1,1.2-2.8-.2-3.8-1-.7-25.9-17.9-85-12.3-55.7,5.2-85-19.1-85.3-19.3-1.3-1.1-3.5-1.2-5-.2-1.4,1-1.5,2.7-.2,3.8,1.3,1.1,32,26.6,91.3,21.1,55.6-5.2,79.2,10.8,79.5,11,.7.5,1.5.7,2.4.7Z"/>
  </g>
</svg>