<?xml version="1.0" encoding="UTF-8"?>
<svg id="_圖層_1" xmlns="http://www.w3.org/2000/svg" version="1.1" viewBox="0 0 1080 1080">
  <!-- Generator: Adobe Illustrator 30.3.0, SVG Export Plug-In . SVG Version: 2.1.3 Build 182)  -->
  <defs>
    <style>
      .st0 {
        fill: #efca58;
      }

      .st1 {
        fill: #334e5c;
      }

      .st2 {
        fill: #d6b54e;
      }
    </style>
  </defs>
  <g>
    <path class="st2" d="M473.8,762.6c82.7,75.5,278.7,188.8,348.8,39.6,30.6-66.5,19.8-167.2-43.2-215.7-124-95.3-307.4,44.9-347,163.6l41.4,12.6h0Z"/>
    <path class="st1" d="M700.6,675.1c-17.1-17.1-17.1-44.8,0-61.9,17.1-17.1,44.8-17.1,61.9,0,17.1,17.1,17.1,44.8,0,61.9-17.1,17.1-44.8,17.1-61.9,0Z"/>
    <path class="st1" d="M760.7,749c-10.2-10.2-10.2-26.6,0-36.8s26.6-10.2,36.8,0,10.2,26.6,0,36.8-26.6,10.2-36.8,0Z"/>
    <path class="st1" d="M749.8,822c-7-7-7-18.3,0-25.3s18.3-7,25.3,0,7,18.3,0,25.3-18.3,7-25.3,0Z"/>
  </g>
  <g>
    <path class="st0" d="M428.9,142.3c-57.5,25.2-75.5,129.4-77.3,185.2,1.8,142,28.8,269.7,79.1,399.1l-10,11.6,48.7,48.7c122-69.4,266.5-279.6,209.4-391.1-12.1-23.6-36-46.7-59.3-62.9-21.6-14.4-66.5-19.8-79.1-39.6-16.2-27,3.6-79.1-18-111.5-18-32.4-55.7-55.7-93.5-39.5h0Z"/>
    <path class="st1" d="M403.7,294.5c-17.1-17.1-17.1-44.8,0-61.9,17.1-17.1,44.8-17.1,61.9,0s17.1,44.8,0,61.9-44.8,17.1-61.9,0Z"/>
    <path class="st1" d="M495.8,388.3c-10.2-10.2-10.2-26.6,0-36.8,10.2-10.2,26.6-10.2,36.8,0s10.2,26.6,0,36.8c-10.2,10.2-26.6,10.2-36.8,0Z"/>
    <path class="st1" d="M563.2,475.8c-20.1-20.1-20.1-52.7,0-72.8,20.1-20.1,52.7-20.1,72.8,0s20.1,52.7,0,72.8c-20.1,20.1-52.7,20.1-72.7,0h0Z"/>
    <path class="st1" d="M586.5,572.4c-9.5-9.5-9.5-24.9,0-34.4s24.9-9.5,34.4,0,9.5,24.9,0,34.4-24.9,9.5-34.4,0Z"/>
  </g>
</svg>