<?xml version="1.0" encoding="UTF-8"?>
<svg id="_圖層_1" data-name="圖層_1" xmlns="http://www.w3.org/2000/svg" version="1.1" viewBox="0 0 1080 1080">
  <!-- Generator: Adobe Illustrator 30.3.0, SVG Export Plug-In . SVG Version: 2.1.3 Build 182)  -->
  <defs>
    <style>
      .st0 {
        fill: #edd4b9;
      }

      .st1 {
        fill: #334e5c;
      }

      .st2 {
        fill: #e56197;
      }

      .st3 {
        fill: #253943;
      }

      .st4 {
        fill: #ed4082;
      }
    </style>
  </defs>
  <g>
    <g>
      <path class="st4" d="M531.7,667.1c-64.5,82-231.7,213.1-332.4,77.8-44.2-60.4-55.4-158.3-4.4-212.1,100.7-105.7,310.2,8.1,374.5,117.5l-37.7,16.8Z"/>
      <path class="st1" d="M291,608.9c13-18.4,7.1-45-13.3-59.4-20.4-14.5-47.5-11.3-60.6,7.1-13,18.4-7,45,13.4,59.4,20.4,14.5,47.5,11.3,60.5-7.1Z"/>
      <path class="st1" d="M248.3,686.8c7.8-10.9,4.2-26.8-7.9-35.3-12.1-8.6-28.3-6.7-36,4.2-7.8,10.9-4.2,26.7,7.9,35.3,12.1,8.6,28.2,6.7,36-4.2Z"/>
      <path class="st1" d="M274.7,755.6c5.3-7.5,2.9-18.4-5.4-24.2-8.3-5.9-19.4-4.6-24.7,2.9-5.3,7.5-2.9,18.4,5.5,24.3,8.3,5.9,19.4,4.6,24.7-2.9Z"/>
    </g>
    <g>
      <path class="st2" d="M441.7,66.3c61.7,17.6,101.8,115.7,115.6,169,28.9,136.6,30.1,262.3,8.9,392.3l12.3,10-37.1,52.3c-134.3-52.7-321-238-289.2-351.6,6.7-24.1,25.1-49,44.4-67.2,18-16.3,60.8-26.6,68.8-47,10-27.8-20.6-75.6-6.5-109.1,10.6-33.1,42.5-59.9,82.9-48.7Z"/>
      <path class="st0" d="M499.1,209.6c13-18.4,7.1-45-13.3-59.4-20.4-14.5-47.5-11.3-60.5,7.1-13,18.4-7,45,13.4,59.4,20.4,14.5,47.5,11.3,60.5-7.1Z"/>
      <path class="st0" d="M429.4,310.2c7.7-10.9,4.1-26.7-7.9-35.3-12.2-8.6-28.2-6.7-36,4.2-7.7,10.9-4.2,26.7,7.9,35.3,12.1,8.6,28.2,6.7,36-4.2Z"/>
      <path class="st0" d="M382.3,401.9c15.3-21.6,8.3-52.9-15.7-69.9-24-17-55.8-13.3-71.2,8.3-15.3,21.6-8.3,52.9,15.7,69.9,24,17,55.8,13.3,71.1-8.3Z"/>
      <path class="st0" d="M380.5,497.3c7.2-10.2,3.9-25-7.4-33-11.3-8-26.4-6.3-33.6,3.9-7.2,10.2-3.9,25,7.5,33,11.3,8,26.4,6.3,33.6-3.9Z"/>
    </g>
  </g>
  <g>
    <g>
      <path class="st4" d="M557.4,685.3c-58.1,86.5-151.2,270.1-55.7,274,42.6,1.2,111.9-39.7,150-102.6,75-123.9-5-215.5-82.3-206.4l-12,35Z"/>
      <path class="st1" d="M598,826.5c13-18.4,31.8-27.4,42-20.2,10.2,7.2,7.9,28-5.1,46.3-13,18.4-31.8,27.4-42,20.2-10.2-7.2-7.9-28,5.1-46.3Z"/>
      <path class="st1" d="M542.9,895.6c7.7-10.9,18.9-16.3,25-12,6.1,4.3,4.7,16.6-3.1,27.5-7.8,10.9-18.9,16.3-25,12-6.1-4.3-4.7-16.6,3.1-27.5Z"/>
      <path class="st1" d="M494.3,911.2c5.3-7.5,13-11.2,17.1-8.2,4.2,2.9,3.2,11.4-2.1,18.9-5.3,7.5-13,11.2-17.2,8.2-4.1-2.9-3.2-11.4,2.1-18.9Z"/>
    </g>
    <g>
      <path class="st2" d="M982.2,449.5c-12.3-34.9-81.6-14.3-119.3,2.5-96.6,47.6-185.5,109.5-277.5,189.3l-7.1-3.7-37.1,52.3c37,68.7,167.7,108.4,248.2,29.3,17-16.8,34.7-42.2,47.6-64.9,11.6-20.8,18.9-56.2,33.4-72.1,19.6-20.9,53.4-23.1,77.1-49.8,23.5-24,42.4-59.9,34.6-82.9Z"/>
      <path class="st0" d="M881,480.3c13-18.4,31.8-27.4,42-20.2,10.2,7.2,7.9,28-5.1,46.3-13,18.4-31.8,27.4-42,20.2-10.2-7.2-7.9-28,5.1-46.3Z"/>
      <path class="st0" d="M809.7,579.7c7.7-10.9,18.9-16.3,25-12,6.1,4.3,4.7,16.6-3,27.5-7.8,10.9-18.9,16.3-25,12-6-4.3-4.7-16.6,3.1-27.5Z"/>
      <path class="st0" d="M744.7,658.7c15.3-21.6,37.4-32.2,49.4-23.7,12,8.5,9.3,32.9-6,54.4-15.3,21.6-37.4,32.2-49.4,23.7-12-8.5-9.3-32.9,6-54.5Z"/>
      <path class="st0" d="M677.2,707.7c7.3-10.2,17.7-15.2,23.4-11.2,5.6,4,4.4,15.5-2.9,25.7-7.2,10.2-17.7,15.2-23.3,11.2-5.7-4-4.4-15.5,2.8-25.7Z"/>
    </g>
  </g>
  <g>
    <path class="st1" d="M605.8,584.3c-.1-.3-.3-.6-.4-.9s.3.6,0,0-.1-.3-.2-.5c-.2-.6-.5-1.2-.7-1.9-.4-1.3-.8-2.7-1.1-4.1s-.3-1.4-.4-2.1-.1-.7-.2-1.1,0,.3,0,.3c0,0,0-.2,0-.3,0-.2,0-.4,0-.6-.2-1.6-.3-3.2-.4-4.7-.1-3.4,0-6.8.2-10.3s.3-3.6.5-5.4.2-1.8.3-2.7,0-.4,0-.6,0-.6,0,.1c0-.1,0-.2,0-.3,0-.5.1-1,.2-1.4,1.1-7.8,2.8-15.5,4.8-23.2,2-7.6,4.2-15.2,6.7-22.6,2.2-6.6,4.6-13.2,7.3-19.7s.6-1.4.9-2.1.1-.3.2-.5c.3-.6-.2.5,0,0s.3-.7.5-1.1c.5-1.2,1.1-2.5,1.6-3.7,1.7-3.7,3.6-7.2,5.6-10.7,4.6-8.3,9.6-16.3,14.6-24.3,4.8-7.7,9.7-15.3,14.2-23.1,4.5-7.7,8.6-15.6,12.1-23.8,3.8-8.9,6.8-18.1,8.9-27.5.5-2.4,1-4.9,1.4-7.3s-.3-2.8-1.7-3.1-2.8.4-3.1,1.7c-1.6,9.7-4.2,19.1-7.7,28.3s-.8,2.2-1.3,3.3-.4,1-.6,1.5-.4,1-.2.4c-.1.3-.3.6-.4.9-.9,2.1-1.8,4.1-2.8,6.1-1.9,4-4,8-6.2,11.9-4.4,7.9-9.1,15.5-13.9,23.1s-10,15.9-14.8,24-4.9,8.7-7.2,13.1-2.3,5-3.4,7.5c-2.7,6.3-5.2,12.7-7.4,19.2s-4.9,14.8-7,22.3-4,15.5-5.3,23.4c-1.3,7.4-2.2,14.9-2.3,22.4s.4,12.7,2.4,18.6,1,2.7,1.6,4,2.4,1.6,3.4.9,1.5-2.2.9-3.4h0Z"/>
    <path class="st1" d="M616.3,596.5c2.1-.4,4.1-1.2,6.1-2s4.4-2.2,6.5-3.4c5.4-3.2,10.5-7,15.4-10.9,5.7-4.5,11.1-9.3,16.5-14.1s10.8-10.1,16.1-15.4,9.6-9.8,14.3-14.8,8.2-8.9,12.1-13.6c6.4-7.8,12.6-15.9,18.7-23.9s5.7-7.5,8.5-11.3,2.8-3.7,4.2-5.5.7-.9,1-1.3.4-.5.6-.7.2-.2.3-.3c.3-.4-.1.2,0,0,.7-.9,1.4-1.8,2.1-2.7,5.7-7.3,11.5-14.5,17.7-21.3,6.3-7.1,13-13.8,20.1-20.1,1.8-1.6,3.7-3.2,5.6-4.8s.9-2.7,0-3.5-2.5-.9-3.5,0c-7.4,6.2-14.4,12.8-21.1,19.8s-12.3,13.8-18.1,21-11.6,14.9-17.2,22.4-5.8,7.6-8.7,11.4-1.5,1.9-2.2,2.9-.2.3-.3.4-.3.4-.1.2,0,.1-.1.2c0,.1-.2.2-.3.3-.4.5-.8,1-1.2,1.5-1.5,2-3.1,3.9-4.6,5.9-2.8,3.5-5.6,7.1-8.6,10.5s-3.5,4-5.3,6c-4.4,4.8-8.9,9.5-13.4,14.1-5.1,5.2-10.4,10.4-15.7,15.4-5.3,5-10.8,9.9-16.4,14.6s-2.7,2.2-4,3.3-1.3,1.1-2,1.6-.6.5-.3.2-.2.2-.3.2c-.3.3-.7.5-1,.8-2.5,1.9-5,3.7-7.5,5.4s-4.5,2.9-6.9,4.1-2.1,1.1-3.2,1.5-.2.1-.4.2.7-.3.3-.1-.1,0-.2,0c-.2.1-.5.2-.7.3-.5.2-.9.3-1.4.5-.9.3-1.7.5-2.6.7-1.3.2-2.1,1.9-1.7,3.1s1.7,2,3.1,1.7h0Z"/>
    <path class="st3" d="M595.4,643.6c14.8-18.2,57-43.2,28.6-70.4-35.1-17.8-44.7,30.3-57,50.3-14.2,22.8-42.6,35.6-59.1,58.7-20.7,29.2-41.4,73-40.4,111.7,36.8-11.9,71.3-45.9,91.9-75.1,16.5-23.2,19.1-54.2,35.9-75.2Z"/>
  </g>
</svg>