<?xml version="1.0" encoding="UTF-8"?>
<svg id="_圖層_1" xmlns="http://www.w3.org/2000/svg" version="1.1" viewBox="0 0 1080 1080">
  <!-- Generator: Adobe Illustrator 30.3.0, SVG Export Plug-In . SVG Version: 2.1.3 Build 182)  -->
  <path d="M359.9,686.3c0,12.6,13,22.9,29.1,22.9s29.1-10.3,29.1-22.9-13-22.9-29.1-22.9-29.1,10.3-29.1,22.9Z"/>
  <path d="M451.7,717.1c19.2,17.2,25,37.7,13,45.7s-37.3.6-56.5-16.6c-19.2-17.2-25-37.7-13-45.7s37.3-.6,56.5,16.6Z"/>
  <path d="M514.4,773.9c38.9,34.9,60.6,69.6,48.6,77.7-12,8-53.2-13.8-92.1-48.6-38.9-34.9-60.6-69.6-48.6-77.6s53.2,13.7,92.1,48.6h0Z"/>
  <path d="M387.9,671.6c.6,0,1.2,0,1.7-.3,1.7-.7,2.3-2.4,1.3-3.7s-24.5-33.1-74.7-39.4c-46.5-5.9-67.3-49.8-67.5-50.3-.7-1.4-2.7-2.2-4.5-1.6-1.8.5-2.8,2.1-2.1,3.5.9,1.9,22.3,47.4,73,53.8,46.9,5.9,69.5,36.4,69.7,36.7.6.9,1.8,1.4,3.1,1.4h0Z"/>
  <path d="M377.9,683.2c1,0,1.9-.3,2.6-.9,1.3-1.1,1.2-2.8-.2-3.8-1-.7-25.9-17.9-85-12.3-55.7,5.2-85-19.1-85.3-19.3-1.3-1.1-3.5-1.2-5-.2-1.4,1-1.5,2.7-.2,3.8s32,26.6,91.3,21.1c55.6-5.2,79.2,10.8,79.5,11,.7.5,1.5.7,2.4.7h0Z"/>
</svg>