<?xml version="1.0" encoding="UTF-8"?>
<svg id="_圖層_1" xmlns="http://www.w3.org/2000/svg" version="1.1" viewBox="0 0 1080 1080">
  <!-- Generator: Adobe Illustrator 30.3.0, SVG Export Plug-In . SVG Version: 2.1.3 Build 182)  -->
  <defs>
    <style>
      .st0 {
        fill: #334e5c;
      }

      .st1 {
        fill: #253943;
      }
    </style>
  </defs>
  <path class="st0" d="M605.8,584.3c0-.3-.3-.6-.4-.9s.3.6,0,0,0-.3-.2-.5c-.2-.6-.5-1.2-.7-1.9-.4-1.3-.8-2.7-1.1-4.1s-.3-1.4-.4-2.1,0-.7-.2-1.1,0,.3,0,.3v-.9c-.2-1.6-.3-3.2-.4-4.7,0-3.4,0-6.8.2-10.3s.3-3.6.5-5.4.2-1.8.3-2.7,0-.4,0-.6,0-.6,0,0v-.3c0-.5,0-1,.2-1.4,1.1-7.8,2.8-15.5,4.8-23.2,2-7.6,4.2-15.2,6.7-22.6,2.2-6.6,4.6-13.2,7.3-19.7s.6-1.4.9-2.1,0-.3.2-.5c.3-.6-.2.5,0,0s.3-.7.5-1.1c.5-1.2,1.1-2.5,1.6-3.7,1.7-3.7,3.6-7.2,5.6-10.7,4.6-8.3,9.6-16.3,14.6-24.3,4.8-7.7,9.7-15.3,14.2-23.1,4.5-7.7,8.6-15.6,12.1-23.8,3.8-8.9,6.8-18.1,8.9-27.5.5-2.4,1-4.9,1.4-7.3s-.3-2.8-1.7-3.1-2.8.4-3.1,1.7c-1.6,9.7-4.2,19.1-7.7,28.3s-.8,2.2-1.3,3.3-.4,1-.6,1.5-.4,1-.2.4c0,.3-.3.6-.4.9-.9,2.1-1.8,4.1-2.8,6.1-1.9,4-4,8-6.2,11.9-4.4,7.9-9.1,15.5-13.9,23.1s-10,15.9-14.8,24-4.9,8.7-7.2,13.1-2.3,5-3.4,7.5c-2.7,6.3-5.2,12.7-7.4,19.2s-4.9,14.8-7,22.3c-2.1,7.5-4,15.5-5.3,23.4-1.3,7.4-2.2,14.9-2.3,22.4s.4,12.7,2.4,18.6,1,2.7,1.6,4,2.4,1.6,3.4.9,1.5-2.2.9-3.4h.4Z"/>
  <path class="st0" d="M616.3,596.5c2.1-.4,4.1-1.2,6.1-2s4.4-2.2,6.5-3.4c5.4-3.2,10.5-7,15.4-10.9,5.7-4.5,11.1-9.3,16.5-14.1s10.8-10.1,16.1-15.4,9.6-9.8,14.3-14.8,8.2-8.9,12.1-13.6c6.4-7.8,12.6-15.9,18.7-23.9s5.7-7.5,8.5-11.3,2.8-3.7,4.2-5.5.7-.9,1-1.3.4-.5.6-.7.2-.2.3-.3c.3-.4,0,.2,0,0,.7-.9,1.4-1.8,2.1-2.7,5.7-7.3,11.5-14.5,17.7-21.3,6.3-7.1,13-13.8,20.1-20.1,1.8-1.6,3.7-3.2,5.6-4.8s.9-2.7,0-3.5-2.5-.9-3.5,0c-7.4,6.2-14.4,12.8-21.1,19.8s-12.3,13.8-18.1,21-11.6,14.9-17.2,22.4-5.8,7.6-8.7,11.4-1.5,1.9-2.2,2.9-.2.3-.3.4-.3.4,0,.2,0,.1,0,.2c0,.1-.2.2-.3.3-.4.5-.8,1-1.2,1.5-1.5,2-3.1,3.9-4.6,5.9-2.8,3.5-5.6,7.1-8.6,10.5s-3.5,4-5.3,6c-4.4,4.8-8.9,9.5-13.4,14.1-5.1,5.2-10.4,10.4-15.7,15.4s-10.8,9.9-16.4,14.6-2.7,2.2-4,3.3-1.3,1.1-2,1.6-.6.5-.3.2-.2.2-.3.2c-.3.3-.7.5-1,.8-2.5,1.9-5,3.7-7.5,5.4s-4.5,2.9-6.9,4.1-2.1,1.1-3.2,1.5-.2,0-.4.2.7-.3.3,0,0,0-.2,0c-.2,0-.5.2-.7.3-.5.2-.9.3-1.4.5-.9.3-1.7.5-2.6.7-1.3.2-2.1,1.9-1.7,3.1s1.7,2,3.1,1.7h0l-.2-.5Z"/>
  <path class="st1" d="M595.4,643.6c14.8-18.2,57-43.2,28.6-70.4-35.1-17.8-44.7,30.3-57,50.3-14.2,22.8-42.6,35.6-59.1,58.7-20.7,29.2-41.4,73-40.4,111.7,36.8-11.9,71.3-45.9,91.9-75.1,16.5-23.2,19.1-54.2,35.9-75.2h0Z"/>
</svg>