<?xml version="1.0" encoding="UTF-8"?>
<svg id="_圖層_1" xmlns="http://www.w3.org/2000/svg" version="1.1" viewBox="0 0 1080 1080">
  <!-- Generator: Adobe Illustrator 30.3.0, SVG Export Plug-In . SVG Version: 2.1.3 Build 182)  -->
  <defs>
    <style>
      .st0 {
        fill: #edd4b9;
      }

      .st1 {
        fill: #334e5c;
      }

      .st2 {
        fill: #e56197;
      }

      .st3 {
        fill: #ed4082;
      }
    </style>
  </defs>
  <g>
    <path class="st3" d="M531.7,667.1c-64.5,82-231.7,213.1-332.4,77.8-44.2-60.4-55.4-158.3-4.4-212.1,100.7-105.7,310.2,8.1,374.5,117.5l-37.7,16.8h0Z"/>
    <path class="st1" d="M291,608.9c13-18.4,7.1-45-13.3-59.4-20.4-14.5-47.5-11.3-60.6,7.1-13,18.4-7,45,13.4,59.4,20.4,14.5,47.5,11.3,60.5-7.1Z"/>
    <path class="st1" d="M248.3,686.8c7.8-10.9,4.2-26.8-7.9-35.3-12.1-8.6-28.3-6.7-36,4.2-7.8,10.9-4.2,26.7,7.9,35.3,12.1,8.6,28.2,6.7,36-4.2Z"/>
    <path class="st1" d="M274.7,755.6c5.3-7.5,2.9-18.4-5.4-24.2-8.3-5.9-19.4-4.6-24.7,2.9s-2.9,18.4,5.5,24.3c8.3,5.9,19.4,4.6,24.7-2.9h-.1Z"/>
  </g>
  <g>
    <path class="st2" d="M441.7,66.3c61.7,17.6,101.8,115.7,115.6,169,28.9,136.6,30.1,262.3,8.9,392.3l12.3,10-37.1,52.3c-134.3-52.7-321-238-289.2-351.6,6.7-24.1,25.1-49,44.4-67.2,18-16.3,60.8-26.6,68.8-47,10-27.8-20.6-75.6-6.5-109.1,10.6-33.1,42.5-59.9,82.9-48.7h-.1Z"/>
    <path class="st0" d="M499.1,209.6c13-18.4,7.1-45-13.3-59.4-20.4-14.5-47.5-11.3-60.5,7.1-13,18.4-7,45,13.4,59.4,20.4,14.5,47.5,11.3,60.5-7.1h-.1Z"/>
    <path class="st0" d="M429.4,310.2c7.7-10.9,4.1-26.7-7.9-35.3-12.2-8.6-28.2-6.7-36,4.2-7.7,10.9-4.2,26.7,7.9,35.3,12.1,8.6,28.2,6.7,36-4.2Z"/>
    <path class="st0" d="M382.3,401.9c15.3-21.6,8.3-52.9-15.7-69.9s-55.8-13.3-71.2,8.3c-15.3,21.6-8.3,52.9,15.7,69.9s55.8,13.3,71.1-8.3h.1Z"/>
    <path class="st0" d="M380.5,497.3c7.2-10.2,3.9-25-7.4-33s-26.4-6.3-33.6,3.9c-7.2,10.2-3.9,25,7.5,33,11.3,8,26.4,6.3,33.6-3.9h-.1Z"/>
  </g>
</svg>