<?xml version="1.0" encoding="UTF-8"?>
<svg id="_喇뒨쏛_2" data-name="喇뒨쏛 2" xmlns="http://www.w3.org/2000/svg" viewBox="-13 -17 156.52 204">
  <defs>
    <style>
      .cls-1 {
        fill: #333;
      }
    </style>
  </defs>
  <g id="_喇뒨쏛_1-2" data-name="喇뒨쏛 1">
    <g>
      <path class="cls-1" d="M104.57,117.69c-22.49,15.87-26.16,28.61-26.03,39.29,0,0,0,0,0,0h0v.28h.01c.15,7.06,5.91,12.74,13,12.74s13.02-5.83,13.02-13.02h0v-39.29Z"/>
      <path class="cls-1" d="M6.84,63.6s-.03.02-.05.03l-.67.39v.02c-3.68,2.31-6.12,6.39-6.12,11.05,0,3.79,1.62,7.19,4.2,9.57v.02s21.95,19.95,21.95,19.95v-52.31l-19.31,11.29Z"/>
      <path class="cls-1" d="M13.05,13.57c.12,3.62,1.38,6.04,3.17,7.88,4.91,5.04,8.31,11.39,9.28,18.37.93,6.67.65,12.49.65,12.49,4.71-3.36,14.26-14.04,12.92-39.3-.46-8.63-8.43-15.32-17.52-12.26-5.41,1.82-8.69,7.11-8.5,12.82Z"/>
      <path class="cls-1" d="M126.03,85.14h0s-21.48-19.75-21.48-19.75v13.12s0,1-.01,2.51v15.01c0,.07,0,.13.01.2v21.47l18.8-11.12c4.25-2.14,7.17-6.53,7.17-11.62,0-3.93-1.75-7.44-4.49-9.82Z"/>
      <g>
        <path class="cls-1" d="M104.55,26.07c0-7.22-5.85-13.07-13.07-13.07s-13.07,5.85-13.07,13.07c0,0,0,0,0,0-.02,19.77,17.79,32.32,26.13,39.32V26.07Z"/>
        <path class="cls-1" d="M52.17,143.37c-.04-17.97-11.59-26.15-26.02-38.75v39.13h.04s0,.09,0,.14c0,7.19,5.83,13.01,13.01,13.01s13.01-5.83,13.01-13.01c0-.17-.02-.35-.03-.52Z"/>
      </g>
      <path class="cls-1" d="M88.38,106.22c-.09-.2-.73-1.5-.83-1.7-1.41-3-2.61-5.5-3.68-7.69q-6.27-12.93,0-22.47c1.02-1.55,2.81-4.26,4.17-6.42.01-.02.02-.04.03-.05.04-.06.07-.12.11-.17h0c.27-.49.44-1.04.44-1.62,0-1.81-1.47-3.28-3.28-3.28-.3,0-.59.05-.87.13h0c-2.62.69-6,1.56-7.9,2.11q-11.21,3.27-22.41-6.04c-1.91-1.58-5.64-4.51-8.25-6.63h0c-.4-.37-.94-.61-1.53-.61-1.25,0-2.26,1.01-2.26,2.26,0,.34.08.66.22.95h0c.12.29.69,1.39.84,1.69,1.4,3,2.61,5.49,3.68,7.69q6.28,12.93,0,22.47c-1.01,1.54-2.91,4.5-4.23,6.59h0c-.32.51-.51,1.11-.51,1.75,0,1.81,1.47,3.28,3.28,3.28.28,0,.55-.05.81-.11h0c2.62-.69,6.04-1.64,7.95-2.2q11.21-3.27,22.41,6.04c1.91,1.58,4.07,3.38,6.68,5.49l1.72,1.31h0c.39.31.87.5,1.41.5,1.25,0,2.26-1.01,2.26-2.26,0-.36-.09-.7-.24-1h0Z"/>
    </g>
  </g>
</svg>
