<?xml version="1.0" encoding="UTF-8"?>
<svg id="_圖層_2" data-name="圖層 2" xmlns="http://www.w3.org/2000/svg" viewBox="0 0 269.98 60.14">
  <defs>
    <style>
      .cls-1 {
        fill: #333;
      }
    </style>
  </defs>
  <g id="_圖層_1-2" data-name="圖層 1">
    <g>
      <g>
        <path class="cls-1" d="M36.99,41.64c-7.96,5.61-9.26,10.12-9.21,13.9,0,0,0,0,0,0h0v.1h0c.05,2.5,2.09,4.51,4.6,4.51s4.61-2.06,4.61-4.61h0v-13.9Z"/>
        <path class="cls-1" d="M2.42,22.5s-.01,0-.02,0l-.24.14h0c-1.3.82-2.17,2.27-2.17,3.91,0,1.34.57,2.54,1.49,3.39h0s7.77,7.06,7.77,7.06v-18.51l-6.83,3.99Z"/>
        <path class="cls-1" d="M4.62,4.8c.04,1.28.49,2.14,1.12,2.79,1.74,1.78,2.94,4.03,3.28,6.5.33,2.36.23,4.42.23,4.42,1.67-1.19,5.05-4.97,4.57-13.9-.16-3.05-2.98-5.42-6.2-4.34-1.91.65-3.07,2.52-3.01,4.54Z"/>
        <path class="cls-1" d="M44.59,30.12h0s-7.6-6.99-7.6-6.99v4.64s0,.35,0,.89v5.31s0,.05,0,.07v7.59l6.65-3.93c1.5-.76,2.54-2.31,2.54-4.11,0-1.39-.62-2.63-1.59-3.48Z"/>
        <g>
          <path class="cls-1" d="M36.99,9.22c0-2.55-2.07-4.62-4.62-4.62s-4.62,2.07-4.62,4.62c0,0,0,0,0,0,0,6.99,6.29,11.43,9.25,13.91v-13.91Z"/>
          <path class="cls-1" d="M18.46,50.72c-.01-6.36-4.1-9.25-9.21-13.71v13.84h.01s0,.03,0,.05c0,2.54,2.06,4.6,4.6,4.6s4.6-2.06,4.6-4.6c0-.06,0-.12-.01-.19Z"/>
        </g>
        <path class="cls-1" d="M31.27,37.58c-.03-.07-.26-.53-.29-.6-.5-1.06-.92-1.94-1.3-2.72q-2.22-4.57,0-7.95c.36-.55.99-1.51,1.48-2.27,0,0,0-.01.01-.02.01-.02.03-.04.04-.06h0c.1-.17.16-.37.16-.57,0-.64-.52-1.16-1.16-1.16-.11,0-.21.02-.31.05h0c-.93.24-2.12.55-2.8.75q-3.97,1.16-7.93-2.14c-.67-.56-1.99-1.6-2.92-2.34h0c-.14-.13-.33-.21-.54-.21-.44,0-.8.36-.8.8,0,.12.03.23.08.34h0c.04.1.24.49.3.6.5,1.06.92,1.94,1.3,2.72q2.22,4.58,0,7.95c-.36.55-1.03,1.59-1.5,2.33h0c-.11.18-.18.39-.18.62,0,.64.52,1.16,1.16,1.16.1,0,.19-.02.29-.04h0c.93-.25,2.14-.58,2.81-.78q3.96-1.16,7.93,2.14c.67.56,1.44,1.2,2.36,1.94l.61.46h0c.14.11.31.18.5.18.44,0,.8-.36.8-.8,0-.13-.03-.25-.09-.35h0Z"/>
      </g>
      <g>
        <g>
          <path class="cls-1" d="M132.24,13.18h-9.24c-1.21,0-2.2.99-2.2,2.2v30.27c0,1.21.99,2.2,2.2,2.2h9.24c1.21,0,2.2-.99,2.2-2.2V15.38c0-1.21-.99-2.2-2.2-2.2ZM130.04,43.45h-4.83v-11.46h4.83v11.46ZM130.04,27.58h-4.83v-10h4.83v10Z"/>
          <path class="cls-1" d="M164.54,34.24h-2.03v-15.26c0-2.45-1.99-4.43-4.43-4.43h-5.72v-5.17c0-1.21-.99-2.2-2.2-2.2s-2.2.99-2.2,2.2v5.17h-5.72c-2.45,0-4.43,1.99-4.43,4.43v15.23c0,2.44,1.99,4.43,4.43,4.43h5.37l-.12.58c-.99,4.79-3.63,7.95-7.86,9.38-1.08.22-1.82,1.13-1.82,2.17,0,1.21.99,2.2,2.2,2.2.13,0,.25-.02.38-.04l.41-.07c6.19-2,9.94-6.65,11.16-13.82l.07-.4h7.68c2.53,0,4.61-1.94,4.85-4.41ZM142.21,34.25v-15.29h5.75v15.29s-5.75,0-5.75,0ZM158.11,34.24h-5.26s-.47,0-.47,0v-1.01s0-14.28,0-14.28h5.75v15.29Z"/>
          <path class="cls-1" d="M161.37,52.92c.69.14,1.39,0,1.98-.39,1.21-.8,1.55-2.44.74-3.66-.05-.08-.1-.15-.16-.22l-.02-.03c-2.28-3.15-6.7-4.05-9.21-4.39l4.72,7.14h.02s.23.37.23.37c.41.63,1,1.03,1.69,1.17Z"/>
        </g>
        <g>
          <path class="cls-1" d="M113.43,32.96c.31-.78.29-1.63-.04-2.4h0c-.04-.1-.1-.2-.15-.3-2.02-4.18-7.06-6.11-9.82-6.98l4.14,9.57.05.11c.37.85.98,1.44,1.75,1.75.78.31,1.63.29,2.4-.04.77-.33,1.36-.94,1.67-1.72Z"/>
          <path class="cls-1" d="M66.62,34.19h0c-.05,1.73,1.31,3.17,3.03,3.23,1.7.11,3.17-1.31,3.22-3.03v-.08s.32-10.56.32-10.56c-2.25,1.83-6.22,5.48-6.55,10.08-.02.14-.03.25-.03.36Z"/>
          <path class="cls-1" d="M93.42,17.24l.38.11c.87.27,1.72.19,2.45-.2.74-.39,1.28-1.05,1.53-1.84.51-1.65-.42-3.4-2.07-3.91-.11-.03-.22-.06-.33-.08-4.48-1.17-9.22,1.4-11.69,2.93l9.71,2.99Z"/>
          <path class="cls-1" d="M77.64,43.97c0,4.61,3.75,8.36,8.36,8.36h10.44c4.61,0,8.36-3.75,8.36-8.36v-4.29l-4.4-1.17v5.46c0,2.18-1.77,3.96-3.96,3.96h-10.44c-2.18,0-3.96-1.77-3.96-3.96v-21.62c0-1.19-.87-2.2-1.98-2.31-.07,0-.15-.01-.22-.01-.55,0-1.07.2-1.48.57-.46.42-.72,1.01-.72,1.63v21.73Z"/>
        </g>
        <path class="cls-1" d="M177.54,52.98c.49,0,.96-.17,1.36-.49l.37-.29h0c2.23-1.83,4.21-4.11,5.89-6.77l.31-.48,5.34,4.89c.86.79,2.33.72,3.11-.14.82-.9.76-2.29-.14-3.11l-6.21-5.69.14-.31c3.2-7.31,3.78-14.6,3.89-16.66h-4.41c-.12,1.86-.64,7.39-2.81,13.15l-.25.66-5.04-4.62,3.26-12.43h6.47c2.53,0,4.62-1.94,4.86-4.4h-10.17l1.66-6.34c.15-.57.07-1.16-.22-1.67-.29-.51-.77-.87-1.34-1.02-.57-.15-1.16-.07-1.67.22-.51.29-.87.77-1.02,1.34l-1.96,7.48h-5.08c-1.21,0-2.2.99-2.2,2.2s.99,2.2,2.2,2.2h3.93l-3.3,12.59c-.21.8.04,1.64.64,2.19l7.02,6.42-.19.33c-1.52,2.61-3.33,4.8-5.39,6.52h0s-.37.32-.37.32c-.53.42-.84,1.05-.84,1.71,0,1.21.99,2.2,2.2,2.2Z"/>
        <path class="cls-1" d="M219.12,29.68h-9.43v-3.86l7.29-11.42c.43-.68.46-1.54.08-2.24-.39-.71-1.13-1.15-1.93-1.15h-16.61c-1.21,0-2.2.99-2.2,2.2s.99,2.2,2.2,2.2h12.59l-5.48,8.57c-.23.35-.35.76-.35,1.18v4.5h-9.46c-1.19,0-2.2.87-2.31,1.98-.06.63.14,1.23.56,1.7.42.46,1.01.72,1.63.72h9.57v6.15c0,.07,0,.13,0,.2.12,1.45.06,5.6-1.7,7.36-.4.39-1.09.9-2.56.77-.07,0-.13,0-.2,0-.52,0-1.01.18-1.41.52-.45.38-.73.91-.78,1.49-.1,1.21.79,2.28,2,2.39,2.4.19,4.52-.51,6.06-2.06,3.35-3.36,3.07-9.53,2.97-10.73v-6.08s4.57,0,4.57,0c2.53,0,4.62-1.93,4.86-4.4Z"/>
        <path class="cls-1" d="M269.98,36.72h-3.01v-2.79c-.05-2.02-1.72-3.66-3.74-3.66h-13.52v-2.97h13.52c2.06,0,3.74-1.68,3.74-3.74v-2.45c0-2.07-1.69-3.74-3.74-3.74h-13.52v-2.97h15.33c1.98,0,3.6-1.54,3.73-3.48h-19.06v-1.55c0-1.26-.99-2.25-2.2-2.25s-2.2.99-2.2,2.2v1.6h-17.13c-1,0-1.77.78-1.77,1.74s.78,1.74,1.74,1.74h17.16v2.98h-12.94c-1.99,0-3.63,1.56-3.73,3.55v.42s0,2.01,0,2.01v.22c0,2.06,1.68,3.74,3.74,3.74h12.94v2.97h-15.55c-.99,0-1.77.78-1.77,1.74s.78,1.74,1.74,1.74h15.58v2.98h-17.35c-.96,0-1.74.78-1.74,1.74s.78,1.74,1.74,1.74h17.35v2.97h-15.57c-.94.03-1.7.81-1.7,1.74s.75,1.71,1.7,1.73h.34s15.23,0,15.23,0v2.91h-5.96c-.96,0-1.74.78-1.74,1.74s.78,1.74,1.74,1.74h6.62c2.06,0,3.74-1.68,3.74-3.74v-2.65h13.52c2.05,0,3.72-1.67,3.74-3.71v-2.79l.34-.1c1.49-.44,2.56-1.79,2.67-3.33ZM249.71,20.85h13.78v2.97h-13.78v-2.97ZM245.3,23.82h-13.2v-2.97h13.2v2.97ZM263.49,43.17h-13.78v-2.97h13.78v2.97ZM263.49,36.72h-13.78v-2.97h13.78v2.97Z"/>
      </g>
    </g>
  </g>
</svg>